{
    "asset" : {
        "generator" : "Khronos glTF Blender I/O v1.6.16",
        "version" : "2.0"
    },
    "scene" : 0,
    "scenes" : [
        {
            "name" : "Scene",
            "nodes" : [
                18
            ]
        }
    ],
    "nodes" : [
        {
            "mesh" : 0,
            "name" : "Prop_Barrel.001_Barrel_PropMaterial_0.001"
        },
        {
            "children" : [
                0
            ],
            "name" : "Prop_Barrel.002"
        },
        {
            "mesh" : 1,
            "name" : "Prop_Barrel_Barrel_PropMaterial_0.001"
        },
        {
            "children" : [
                2
            ],
            "name" : "Prop_Barrel.003"
        },
        {
            "mesh" : 2,
            "name" : "Prop_BarrelBottles_Barrel_PropMaterial_0.001"
        },
        {
            "mesh" : 3,
            "name" : "Prop_BarrelBottles_BottleMaterial_0.001"
        },
        {
            "children" : [
                4,
                5
            ],
            "name" : "Prop_BarrelBottles.001"
        },
        {
            "mesh" : 4,
            "name" : "Prop_BarrelShadowPlane_Material_0.001"
        },
        {
            "children" : [
                7
            ],
            "name" : "Prop_BarrelShadowPlane.001"
        },
        {
            "mesh" : 5,
            "name" : "Prop_Bottle.002_BottleMaterial_0.001"
        },
        {
            "children" : [
                9
            ],
            "name" : "Prop_Bottle.003"
        },
        {
            "mesh" : 6,
            "name" : "Prop_Bottle.001_BottleMaterial_0.001"
        },
        {
            "children" : [
                11
            ],
            "name" : "Prop_Bottle.004"
        },
        {
            "mesh" : 7,
            "name" : "Prop_Bottle_BottleMaterial_0.001"
        },
        {
            "children" : [
                13
            ],
            "name" : "Prop_Bottle.005"
        },
        {
            "children" : [
                1,
                3,
                6,
                8,
                10,
                12,
                14
            ],
            "name" : "RootNode.001"
        },
        {
            "children" : [
                15
            ],
            "name" : "f4d1ce9219d9421c80b92c5e26414e58.fbx.001"
        },
        {
            "children" : [
                16
            ],
            "name" : "RootNode (model correction matrix).001"
        },
        {
            "children" : [
                17
            ],
            "name" : "RootNode (gltf orientation matrix).001"
        }
    ],
    "materials" : [
        {
            "doubleSided" : true,
            "name" : "Barrel_PropMaterial.001",
            "normalTexture" : {
                "index" : 0
            },
            "occlusionTexture" : {
                "index" : 1
            },
            "pbrMetallicRoughness" : {
                "baseColorTexture" : {
                    "index" : 2
                },
                "metallicRoughnessTexture" : {
                    "index" : 1
                }
            }
        },
        {
            "doubleSided" : true,
            "name" : "BottleMaterial.001",
            "normalTexture" : {
                "index" : 3
            },
            "occlusionTexture" : {
                "index" : 4
            },
            "pbrMetallicRoughness" : {
                "baseColorTexture" : {
                    "index" : 5
                },
                "metallicFactor" : 0.10537347197532654,
                "metallicRoughnessTexture" : {
                    "index" : 4
                }
            }
        },
        {
            "alphaMode" : "BLEND",
            "doubleSided" : true,
            "name" : "Material.002",
            "occlusionTexture" : {
                "index" : 6
            },
            "pbrMetallicRoughness" : {
                "baseColorFactor" : [
                    0,
                    0,
                    0,
                    1
                ],
                "baseColorTexture" : {
                    "index" : 7
                }
            }
        }
    ],
    "meshes" : [
        {
            "name" : "Prop_Barrel.001_Barrel_PropMaterial_0.001",
            "primitives" : [
                {
                    "attributes" : {
                        "POSITION" : 0,
                        "NORMAL" : 1,
                        "TEXCOORD_0" : 2
                    },
                    "indices" : 3,
                    "material" : 0
                }
            ]
        },
        {
            "name" : "Prop_Barrel_Barrel_PropMaterial_0.001",
            "primitives" : [
                {
                    "attributes" : {
                        "POSITION" : 4,
                        "NORMAL" : 5,
                        "TEXCOORD_0" : 6
                    },
                    "indices" : 7,
                    "material" : 0
                }
            ]
        },
        {
            "name" : "Prop_BarrelBottles_Barrel_PropMaterial_0.001",
            "primitives" : [
                {
                    "attributes" : {
                        "POSITION" : 8,
                        "NORMAL" : 9,
                        "TEXCOORD_0" : 10
                    },
                    "indices" : 11,
                    "material" : 0
                }
            ]
        },
        {
            "name" : "Prop_BarrelBottles_BottleMaterial_0.001",
            "primitives" : [
                {
                    "attributes" : {
                        "POSITION" : 12,
                        "NORMAL" : 13,
                        "TEXCOORD_0" : 14
                    },
                    "indices" : 15,
                    "material" : 1
                }
            ]
        },
        {
            "name" : "Prop_BarrelShadowPlane_Material_0.001",
            "primitives" : [
                {
                    "attributes" : {
                        "POSITION" : 16,
                        "NORMAL" : 17,
                        "TEXCOORD_0" : 18
                    },
                    "indices" : 19,
                    "material" : 2
                }
            ]
        },
        {
            "name" : "Prop_Bottle.002_BottleMaterial_0.001",
            "primitives" : [
                {
                    "attributes" : {
                        "POSITION" : 20,
                        "NORMAL" : 21,
                        "TEXCOORD_0" : 22
                    },
                    "indices" : 23,
                    "material" : 1
                }
            ]
        },
        {
            "name" : "Prop_Bottle.001_BottleMaterial_0.001",
            "primitives" : [
                {
                    "attributes" : {
                        "POSITION" : 24,
                        "NORMAL" : 25,
                        "TEXCOORD_0" : 26
                    },
                    "indices" : 27,
                    "material" : 1
                }
            ]
        },
        {
            "name" : "Prop_Bottle_BottleMaterial_0.001",
            "primitives" : [
                {
                    "attributes" : {
                        "POSITION" : 28,
                        "NORMAL" : 29,
                        "TEXCOORD_0" : 30
                    },
                    "indices" : 31,
                    "material" : 1
                }
            ]
        }
    ],
    "textures" : [
        {
            "sampler" : 0,
            "source" : 0
        },
        {
            "sampler" : 0,
            "source" : 1
        },
        {
            "sampler" : 0,
            "source" : 2
        },
        {
            "sampler" : 0,
            "source" : 3
        },
        {
            "sampler" : 0,
            "source" : 4
        },
        {
            "sampler" : 0,
            "source" : 5
        },
        {
            "sampler" : 0,
            "source" : 6
        },
        {
            "sampler" : 0,
            "source" : 7
        }
    ],
    "images" : [
        {
            "mimeType" : "image/png",
            "name" : "Barrel_PropMaterial_normal",
            "uri" : "Barrel_PropMaterial_normal.png"
        },
        {
            "mimeType" : "image/png",
            "name" : "Barrel_PropMaterial_metallicRoughness",
            "uri" : "Barrel_PropMaterial_metallicRoughness.png"
        },
        {
            "mimeType" : "image/png",
            "name" : "Barrel_PropMaterial_baseColor",
            "uri" : "Barrel_PropMaterial_baseColor.png"
        },
        {
            "mimeType" : "image/png",
            "name" : "BottleMaterial_normal",
            "uri" : "BottleMaterial_normal.png"
        },
        {
            "mimeType" : "image/png",
            "name" : "BottleMaterial_metallicRoughness",
            "uri" : "BottleMaterial_metallicRoughness.png"
        },
        {
            "mimeType" : "image/png",
            "name" : "BottleMaterial_baseColor",
            "uri" : "BottleMaterial_baseColor.png"
        },
        {
            "mimeType" : "image/png",
            "name" : "Material_metallicRoughness",
            "uri" : "Material_metallicRoughness.png"
        },
        {
            "mimeType" : "image/png",
            "name" : "Material_baseColor",
            "uri" : "Material_baseColor.png"
        }
    ],
    "accessors" : [
        {
            "bufferView" : 0,
            "componentType" : 5126,
            "count" : 3929,
            "max" : [
                0.41954371333122253,
                0.7658188343048096,
                -0.30018362402915955
            ],
            "min" : [
                -0.6461194157600403,
                -0.016866952180862427,
                -1.2741143703460693
            ],
            "type" : "VEC3"
        },
        {
            "bufferView" : 1,
            "componentType" : 5126,
            "count" : 3929,
            "type" : "VEC3"
        },
        {
            "bufferView" : 2,
            "componentType" : 5126,
            "count" : 3929,
            "type" : "VEC2"
        },
        {
            "bufferView" : 3,
            "componentType" : 5123,
            "count" : 11676,
            "type" : "SCALAR"
        },
        {
            "bufferView" : 4,
            "componentType" : 5126,
            "count" : 3922,
            "max" : [
                0.39134299755096436,
                0.888188898563385,
                0.39134281873703003
            ],
            "min" : [
                -0.40064358711242676,
                -0.013188421726226807,
                -0.3913428485393524
            ],
            "type" : "VEC3"
        },
        {
            "bufferView" : 5,
            "componentType" : 5126,
            "count" : 3922,
            "type" : "VEC3"
        },
        {
            "bufferView" : 6,
            "componentType" : 5126,
            "count" : 3922,
            "type" : "VEC2"
        },
        {
            "bufferView" : 7,
            "componentType" : 5123,
            "count" : 11676,
            "type" : "SCALAR"
        },
        {
            "bufferView" : 8,
            "componentType" : 5126,
            "count" : 306,
            "max" : [
                0.4559974670410156,
                0.6233856678009033,
                0.1252516359090805
            ],
            "min" : [
                0.324983149766922,
                0.5671106576919556,
                -0.21845483779907227
            ],
            "type" : "VEC3"
        },
        {
            "bufferView" : 9,
            "componentType" : 5126,
            "count" : 306,
            "type" : "VEC3"
        },
        {
            "bufferView" : 10,
            "componentType" : 5126,
            "count" : 306,
            "type" : "VEC2"
        },
        {
            "bufferView" : 11,
            "componentType" : 5123,
            "count" : 1440,
            "type" : "SCALAR"
        },
        {
            "bufferView" : 12,
            "componentType" : 5126,
            "count" : 5685,
            "max" : [
                0.5423515439033508,
                0.7167013883590698,
                0.15740710496902466
            ],
            "min" : [
                0.3228492736816406,
                0.3617817163467407,
                -0.28889352083206177
            ],
            "type" : "VEC3"
        },
        {
            "bufferView" : 13,
            "componentType" : 5126,
            "count" : 5685,
            "type" : "VEC3"
        },
        {
            "bufferView" : 14,
            "componentType" : 5126,
            "count" : 5685,
            "type" : "VEC2"
        },
        {
            "bufferView" : 15,
            "componentType" : 5123,
            "count" : 18108,
            "type" : "SCALAR"
        },
        {
            "bufferView" : 16,
            "componentType" : 5126,
            "count" : 4,
            "max" : [
                0.9375,
                1.4695501704409253e-07,
                1.0937501192092896
            ],
            "min" : [
                -0.9375,
                -2.309293165581039e-07,
                -1.7187501192092896
            ],
            "type" : "VEC3"
        },
        {
            "bufferView" : 17,
            "componentType" : 5126,
            "count" : 4,
            "type" : "VEC3"
        },
        {
            "bufferView" : 18,
            "componentType" : 5126,
            "count" : 4,
            "type" : "VEC2"
        },
        {
            "bufferView" : 19,
            "componentType" : 5123,
            "count" : 6,
            "type" : "SCALAR"
        },
        {
            "bufferView" : 20,
            "componentType" : 5126,
            "count" : 1890,
            "max" : [
                -0.35575616359710693,
                0.3392495810985565,
                -0.1850949376821518
            ],
            "min" : [
                -0.5067272186279297,
                0.0034088660031557083,
                -0.33458322286605835
            ],
            "type" : "VEC3"
        },
        {
            "bufferView" : 21,
            "componentType" : 5126,
            "count" : 1890,
            "type" : "VEC3"
        },
        {
            "bufferView" : 22,
            "componentType" : 5126,
            "count" : 1890,
            "type" : "VEC2"
        },
        {
            "bufferView" : 23,
            "componentType" : 5123,
            "count" : 6036,
            "type" : "SCALAR"
        },
        {
            "bufferView" : 24,
            "componentType" : 5126,
            "count" : 1895,
            "max" : [
                0.3724559545516968,
                0.14705845713615417,
                -0.22062024474143982
            ],
            "min" : [
                0.2021545171737671,
                -0.004439756274223328,
                -0.5636119842529297
            ],
            "type" : "VEC3"
        },
        {
            "bufferView" : 25,
            "componentType" : 5126,
            "count" : 1895,
            "type" : "VEC3"
        },
        {
            "bufferView" : 26,
            "componentType" : 5126,
            "count" : 1895,
            "type" : "VEC2"
        },
        {
            "bufferView" : 27,
            "componentType" : 5123,
            "count" : 6036,
            "type" : "SCALAR"
        },
        {
            "bufferView" : 28,
            "componentType" : 5126,
            "count" : 1862,
            "max" : [
                -0.0571504682302475,
                1.15427827835083,
                0.16043460369110107
            ],
            "min" : [
                -0.20812150835990906,
                0.8184375166893005,
                0.010946296155452728
            ],
            "type" : "VEC3"
        },
        {
            "bufferView" : 29,
            "componentType" : 5126,
            "count" : 1862,
            "type" : "VEC3"
        },
        {
            "bufferView" : 30,
            "componentType" : 5126,
            "count" : 1862,
            "type" : "VEC2"
        },
        {
            "bufferView" : 31,
            "componentType" : 5123,
            "count" : 6036,
            "type" : "SCALAR"
        }
    ],
    "bufferViews" : [
        {
            "buffer" : 0,
            "byteLength" : 47148,
            "byteOffset" : 0
        },
        {
            "buffer" : 0,
            "byteLength" : 47148,
            "byteOffset" : 47148
        },
        {
            "buffer" : 0,
            "byteLength" : 31432,
            "byteOffset" : 94296
        },
        {
            "buffer" : 0,
            "byteLength" : 23352,
            "byteOffset" : 125728
        },
        {
            "buffer" : 0,
            "byteLength" : 47064,
            "byteOffset" : 149080
        },
        {
            "buffer" : 0,
            "byteLength" : 47064,
            "byteOffset" : 196144
        },
        {
            "buffer" : 0,
            "byteLength" : 31376,
            "byteOffset" : 243208
        },
        {
            "buffer" : 0,
            "byteLength" : 23352,
            "byteOffset" : 274584
        },
        {
            "buffer" : 0,
            "byteLength" : 3672,
            "byteOffset" : 297936
        },
        {
            "buffer" : 0,
            "byteLength" : 3672,
            "byteOffset" : 301608
        },
        {
            "buffer" : 0,
            "byteLength" : 2448,
            "byteOffset" : 305280
        },
        {
            "buffer" : 0,
            "byteLength" : 2880,
            "byteOffset" : 307728
        },
        {
            "buffer" : 0,
            "byteLength" : 68220,
            "byteOffset" : 310608
        },
        {
            "buffer" : 0,
            "byteLength" : 68220,
            "byteOffset" : 378828
        },
        {
            "buffer" : 0,
            "byteLength" : 45480,
            "byteOffset" : 447048
        },
        {
            "buffer" : 0,
            "byteLength" : 36216,
            "byteOffset" : 492528
        },
        {
            "buffer" : 0,
            "byteLength" : 48,
            "byteOffset" : 528744
        },
        {
            "buffer" : 0,
            "byteLength" : 48,
            "byteOffset" : 528792
        },
        {
            "buffer" : 0,
            "byteLength" : 32,
            "byteOffset" : 528840
        },
        {
            "buffer" : 0,
            "byteLength" : 12,
            "byteOffset" : 528872
        },
        {
            "buffer" : 0,
            "byteLength" : 22680,
            "byteOffset" : 528884
        },
        {
            "buffer" : 0,
            "byteLength" : 22680,
            "byteOffset" : 551564
        },
        {
            "buffer" : 0,
            "byteLength" : 15120,
            "byteOffset" : 574244
        },
        {
            "buffer" : 0,
            "byteLength" : 12072,
            "byteOffset" : 589364
        },
        {
            "buffer" : 0,
            "byteLength" : 22740,
            "byteOffset" : 601436
        },
        {
            "buffer" : 0,
            "byteLength" : 22740,
            "byteOffset" : 624176
        },
        {
            "buffer" : 0,
            "byteLength" : 15160,
            "byteOffset" : 646916
        },
        {
            "buffer" : 0,
            "byteLength" : 12072,
            "byteOffset" : 662076
        },
        {
            "buffer" : 0,
            "byteLength" : 22344,
            "byteOffset" : 674148
        },
        {
            "buffer" : 0,
            "byteLength" : 22344,
            "byteOffset" : 696492
        },
        {
            "buffer" : 0,
            "byteLength" : 14896,
            "byteOffset" : 718836
        },
        {
            "buffer" : 0,
            "byteLength" : 12072,
            "byteOffset" : 733732
        }
    ],
    "samplers" : [
        {
            "magFilter" : 9729,
            "minFilter" : 9987
        }
    ],
    "buffers" : [
        {
            "byteLength" : 745804,
            "uri" : "scene.bin"
        }
    ]
}
